<?xml version="1.0" encoding="iso-8859-1"?>
<!-- Uploaded to: SVG Repo, www.svgrepo.com, Generator: SVG Repo Mixer Tools -->
<!DOCTYPE svg PUBLIC "-//W3C//DTD SVG 1.1//EN" "http://www.w3.org/Graphics/SVG/1.1/DTD/svg11.dtd">
<svg fill="#000000" version="1.1" id="Capa_1" xmlns="http://www.w3.org/2000/svg" xmlns:xlink="http://www.w3.org/1999/xlink" 
	 width="800px" height="800px" viewBox="0 0 37.23 37.229"
	 xml:space="preserve">
<g>
	<path d="M5.09,1.6C3.489,1.914,2.562,4.056,3.017,6.385l6.041,30.844l2.9-0.567c1.602-0.313,1.08-2.173,0.623-4.502L6.54,1.316
		L5.09,1.6z"/>
	<path d="M19.236,17.059L23.441,0.12l-1.519,0.007c-2.373,0.013-6.055,0.808-8.221,1.775L8.9,4.047l3.133,15.994l4.799-2.146
		C17.512,17.592,18.346,17.311,19.236,17.059z"/>
	<path d="M32.246,16.082c2.328-0.456,2.771-2.099,0.99-3.667l-4.49-3.952l2.668-5.353c1.059-2.124,0.029-3.477-2.301-3.021
		l-3.457,0.018l-4.068,16.401c1.246-0.236,2.476-0.384,3.47-0.391L32.246,16.082z"/>
</g>
</svg>