<?xml version="1.0" encoding="iso-8859-1"?>
<!-- Uploaded to: SVG Repo, www.svgrepo.com, Generator: SVG Repo Mixer Tools -->
<svg fill="#000000" height="800px" width="800px" version="1.1" id="Layer_1" xmlns="http://www.w3.org/2000/svg" xmlns:xlink="http://www.w3.org/1999/xlink" 
	 viewBox="0 0 512 512" xml:space="preserve">
<g>
	<g>
		<path d="M255.999,228.142c-31.4,0-56.947,25.547-56.947,56.947c0,31.4,25.547,56.947,56.947,56.947s56.947-25.547,56.947-56.947
			C312.946,253.689,287.4,228.142,255.999,228.142z"/>
	</g>
</g>
<g>
	<g>
		<path d="M397.201,196.066c-7.104-11.245-15.493-21.539-24.942-30.715H139.74c-9.449,9.176-17.837,19.47-24.942,30.715
			c-16.818,26.618-25.707,57.401-25.707,89.024c0,9.708,0.844,19.452,2.509,28.961L126.252,512h259.495L420.4,314.051
			c1.664-9.51,2.509-19.253,2.509-28.961C422.907,253.467,414.018,222.682,397.201,196.066z M255.999,373.383
			c-48.685,0-88.294-39.609-88.294-88.294c0-48.685,39.609-88.294,88.294-88.294s88.294,39.609,88.294,88.294
			C344.293,333.774,304.684,373.383,255.999,373.383z"/>
	</g>
</g>
<g>
	<g>
		<path d="M337.565,67.396C330.213,29.062,296.445,0,255.999,0s-74.214,29.062-81.566,67.396h-27.626v31.347h26.122v35.261h166.139
			V98.743h26.122V67.396H337.565z"/>
	</g>
</g>
</svg>